HIERARCHY
ROOT Hips
{
  OFFSET 3.13124 94.3669 -3.18751
  CHANNELS  6 Xposition Yposition Zposition Zrotation Xrotation Yrotation
  JOINT LeftUpLeg
  {
    OFFSET 8.64259 1.95398 -2.38835
    CHANNELS 3 Zrotation Xrotation Yrotation
    JOINT LeftLeg
    {
      OFFSET 43.7702 0 0
      CHANNELS 3 Zrotation Xrotation Yrotation
      JOINT LeftFoot
      {
        OFFSET 40.6238 0 0
        CHANNELS 3 Zrotation Xrotation Yrotation
        JOINT LeftToeBase
        {
          OFFSET 12.7242 0 0
          CHANNELS 3 Zrotation Xrotation Yrotation
          End Site
          {
            OFFSET 0 0 0
          }
        }
      }
    }
  }
  JOINT RightUpLeg
  {
    OFFSET -8.2249 1.95398 -2.59336
    CHANNELS 3 Zrotation Xrotation Yrotation
    JOINT RightLeg
    {
      OFFSET 43.5653 0 0
      CHANNELS 3 Zrotation Xrotation Yrotation
      JOINT RightFoot
      {
        OFFSET 40.6238 0 0
        CHANNELS 3 Zrotation Xrotation Yrotation
        JOINT RightToeBase
        {
          OFFSET 12.7242 0 0
          CHANNELS 3 Zrotation Xrotation Yrotation
          End Site
          {
            OFFSET 0 0 0
          }
        }
      }
    }
  }
  JOINT Spine
  {
    OFFSET 0.165834 0.87714 6.61349
    CHANNELS 3 Zrotation Xrotation Yrotation
    JOINT Spine1
    {
      OFFSET 7.38962 1.71661e-005 0
      CHANNELS 3 Zrotation Xrotation Yrotation
      JOINT Spine2
      {
        OFFSET 11.9445 1.14441e-005 0
        CHANNELS 3 Zrotation Xrotation Yrotation
        JOINT Spine3
        {
          OFFSET 14.7254 4.19617e-005 0
          CHANNELS 3 Zrotation Xrotation Yrotation
          JOINT Spine4
          {
            OFFSET 10.9679 0 0
            CHANNELS 3 Zrotation Xrotation Yrotation
            JOINT RightShoulder
            {
              OFFSET 2.46616 -1.6653 3.69651
              CHANNELS 3 Zrotation Xrotation Yrotation
              JOINT RightArm
              {
                OFFSET 13.0012 0 0
                CHANNELS 3 Zrotation Xrotation Yrotation
                JOINT RightForeArm
                {
                  OFFSET 28.7848 1.52588e-005 0
                  CHANNELS 3 Zrotation Xrotation Yrotation
                  JOINT RightHand
                  {
                    OFFSET 26.5688 1.52588e-005 0
                    CHANNELS 3 Zrotation Xrotation Yrotation
                    End Site
                    {
                      OFFSET 0 0 0
                    }
                  }
                }
              }
            }
            JOINT LeftShoulder
            {
              OFFSET 2.38034 -1.29275 -3.75231
              CHANNELS 3 Zrotation Xrotation Yrotation
              JOINT LeftArm
              {
                OFFSET 16.3182 6.10352e-005 0
                CHANNELS 3 Zrotation Xrotation Yrotation
                JOINT LeftForeArm
                {
                  OFFSET 27.0901 0 0
                  CHANNELS 3 Zrotation Xrotation Yrotation
                  JOINT LeftHand
                  {
                    OFFSET 24.5451 1.52588e-005 0
                    CHANNELS 3 Zrotation Xrotation Yrotation
                    End Site
                    {
                      OFFSET 0 0 0
                    }
                  }
                }
              }
            }
            JOINT Neck
            {
              OFFSET 5.0226 -0.0266342 0
              CHANNELS 3 Zrotation Xrotation Yrotation
              JOINT Head
              {
                OFFSET 6.69363 2.86102e-005 0
                CHANNELS 3 Zrotation Xrotation Yrotation
                End Site
                {
                  OFFSET 0 0 0
                }
              }
            }
          }
        }
      }
    }
  }
}
MOTION
Frames:	12
Frame Time:	0.0333333
108.607 71.256 -61.1888 78.3913 -12.7666 87.8231 -179.323 55.9616 97.3486 -28.3573 86.1937 28.1456 61.3319 68.2465 44.8079 28.7808 5.06479e-006 1.36131e-005 175.644 44.0194 95.8962 -90.6483 24.1411 0.420154 92.2162 17.8749 4.40688 28.7808 1.51332e-005 1.89518e-005 3.83576 8.31504 -93.3049 10.0784 2.55861 -3.90673 -1.5963 2.3843 -4.01365 -24.1216 3.61407 -2.95837 -4.10896 3.61406 -2.95839 88.671 -47.6066 -103.483 28.7371 5.18604 -67.4404 -3.4665 -4.6513 -4.89326 -17.1624 -0.437938 -2.28766 -86.3212 -35.7347 81.6872 -47.4192 4.47549 27.9721 9.2196 2.29995 -68.5092 -2.5024 -0.0833182 -10.8105 51.3486 -17.569 -5.79065 -50.8709 -13.9016 2.00111 
113.393 72.3563 -61.1043 79.8651 -13.9009 87.6858 -178.952 50.7802 97.186 -10.6623 79.0054 10.1627 70.5268 70.2348 39.1395 28.7808 5.06479e-006 1.36131e-005 177.536 38.076 92.8627 -88.8743 20.5512 0.227337 90.845 19.1402 5.05892 28.7808 1.51332e-005 1.89518e-005 4.08171 8.19755 -93.4606 10.3012 3.24048 -3.8624 -1.37162 3.06765 -4.00476 -23.9139 4.24975 -2.70622 -3.90129 4.24974 -2.70624 88.9563 -46.5369 -103.326 29.0721 5.52053 -63.6712 -3.62436 -8.46124 -4.89023 -12.2148 -0.563772 -0.198148 -85.6529 -38.6255 83.4422 -45.3557 0.283086 32.6173 15.3108 5.72071 -66.4057 -2.42167 -0.0876087 -12.2142 48.5118 -15.899 -1.47887 -49.5438 -13.3594 -2.0029 
118.005 73.4626 -61.1735 80.0328 -14.2567 86.854 -179.046 47.1204 96.1616 -7.18364 71.7071 6.39215 81.6962 71.3934 31.3423 28.7808 5.06479e-006 1.36131e-005 179.228 33.6494 89.4274 -86.7354 16.4764 0.0347841 88.77 20.1974 5.83829 28.7808 1.51332e-005 1.89518e-005 4.30703 8.0037 -93.5604 10.6484 3.63931 -3.51788 -1.0227 3.48103 -3.67455 -23.5796 4.52788 -2.2608 -3.56692 4.52788 -2.26082 88.6415 -46.64 -103.793 27.3437 8.4691 -58.3413 -4.24248 -22.7674 -4.98109 7.73289 -0.289706 -9.51633 -84.029 -39.0919 86.3142 -43.0737 -2.65164 37.4461 20.4997 8.14171 -67.2086 -6.57529 0.134275 -10.4959 46.9396 -15.3443 0.773389 -47.7173 -13.3048 -4.14409 
122.125 75.1667 -60.8978 80.973 -13.1345 86.9021 -179.292 43.3384 94.3747 -6.0239 66.3416 5.03584 94.4443 71.5051 21.9258 28.7808 5.06479e-006 1.36131e-005 179.619 28.364 88.3677 -83.0474 16.8988 0.154396 84.4117 21.1034 7.10356 28.7808 1.51332e-005 1.89518e-005 4.24371 7.98031 -93.5875 10.6905 3.84471 -3.41147 -0.979761 3.69088 -3.57693 -23.544 4.69213 -2.10022 -3.53138 4.69212 -2.10025 88.986 -46.5317 -103.272 25.6891 10.6869 -54.4762 -4.82739 -34.3529 -5.20005 18.3174 -2.54354 -20.2479 -81.947 -41.5341 90.1419 -38.4717 -6.06777 40.0375 27.2682 11.3351 -68.2061 -10.4066 0.346771 -10.5354 50.0946 -14.5768 4.19092 -50.2146 -13.2114 -7.04957 
126.172 77.2288 -60.6809 82.2765 -11.5855 87.719 -179.434 39.2332 93.3602 -5.85144 65.2322 4.8217 99.2218 71.6875 18.5017 28.7808 5.06479e-006 1.36131e-005 179.453 21.5272 88.6141 -76.5254 17.6477 0.348865 81.7272 22.5522 8.26928 28.7808 1.51332e-005 1.89518e-005 4.03671 7.92584 -93.6174 10.8234 3.95657 -3.57744 -0.846905 3.79539 -3.74807 -23.4125 4.84839 -2.21943 -3.39986 4.84835 -2.21944 88.8626 -46.1124 -103.585 24.526 12.1423 -51.0081 -5.10811 -39.081 -5.34114 25.1613 -4.26128 -23.4617 -80.1392 -42.6097 93.2327 -35.0529 -8.5268 41.9784 32.0376 14.106 -68.2987 -13.953 0.68582 -12.0205 50.359 -13.8124 7.47753 -50.6889 -13.2387 -9.80749 
130.014 79.4548 -60.3513 82.2203 -10.5584 88.1535 -179.493 36.3733 92.8577 -6.04476 66.4765 5.06318 94.9834 72.743 21.9918 28.7808 5.06479e-006 1.36131e-005 179.385 16.9204 88.802 -70.6126 18.1551 0.501828 75.5501 21.0284 9.12923 28.7808 1.51332e-005 1.89518e-005 3.93639 7.72974 -93.5329 11.2385 4.21767 -3.65755 -0.431448 4.05274 -3.83895 -23.0015 5.1212 -2.22383 -2.98888 5.1212 -2.22386 88.6272 -46.6741 -103.816 23.4486 13.3644 -47.5213 -5.40708 -43.5415 -5.51449 27.7362 -5.42356 -26.2254 -78.3714 -43.8674 96.1848 -31.8002 -10.5977 43.4972 34.5978 16.1533 -67.8135 -14.6665 0.935637 -13.9081 51.0403 -13.541 10.0307 -51.1672 -13.8311 -11.4168 
134.142 81.6977 -60.0482 83.492 -9.67066 88.3675 -179.686 32.221 92.2637 -6.58551 69.2564 5.69541 90.5538 74.3893 26.0473 28.7808 5.06479e-006 1.36131e-005 179.315 10.7635 88.3766 -64.1202 18.3722 0.677355 69.0394 19.2116 9.79701 28.7808 1.51332e-005 1.89518e-005 3.98695 7.70059 -93.6441 11.2718 4.50373 -3.55052 -0.396674 4.34323 -3.7447 -22.9788 5.36175 -2.03505 -2.96612 5.36174 -2.03508 87.3235 -47.7069 -105.564 21.4294 15.2468 -43.2729 -5.68704 -47.2218 -5.69394 27.957 -6.59933 -30.5013 -77.1007 -44.9835 98.2493 -29.5969 -11.8615 43.8123 34.3711 17.3017 -66.2475 -13.3943 0.959373 -15.2249 52.0756 -13.5719 12.4914 -51.9913 -14.449 -13.4966 
137.822 83.4573 -59.6686 85.447 -8.6593 89.3844 -179.729 27.8483 92.3665 -7.13918 71.4943 6.32858 93.3815 73.9872 23.6985 28.7808 5.06479e-006 1.36131e-005 179.166 5.99671 88.8159 -60.4971 17.914 0.741655 60.0489 16.8862 10.5652 28.7808 1.51332e-005 1.89518e-005 4.01448 7.73686 -93.8922 11.1793 4.71843 -3.63427 -0.488725 4.554 -3.83843 -23.0771 5.5919 -2.04587 -3.06444 5.59189 -2.04589 88.2855 -47.0899 -104.232 21.9257 14.9657 -39.9512 -5.89787 -49.7059 -5.83828 26.8999 -7.55503 -35.1808 -76.4347 -45.4926 99.3094 -29.4588 -11.7609 44.8917 26.4639 11.9723 -66.3317 -15.0565 0.554977 -10.1861 53.0548 -13.1018 15.0779 -53.2585 -14.6217 -15.5994 
141.055 85.1892 -59.3186 86.8186 -8.15533 90.0527 -179.826 24.3333 92.4727 -11.5762 79.9214 11.0712 115.543 66.4116 6.234 28.7808 5.06479e-006 1.36131e-005 179.102 1.70464 89.0386 -56.0943 17.0911 0.787504 53.843 15.1354 10.8151 28.7808 1.51332e-005 1.89518e-005 4.04157 7.70473 -94.0174 11.2352 5.00544 -3.75329 -0.432289 4.83553 -3.97 -23.0274 5.90125 -2.07237 -3.01472 5.90122 -2.07238 89.9782 -45.2614 -101.996 23.6776 13.8338 -36.4167 -6.02178 -51.061 -5.92638 24.5904 -8.04267 -39.8939 -76.2845 -46.4338 99.5259 -28.0557 -12.5825 45.3743 26.1879 12.5852 -65.0094 -15.1922 0.711016 -11.4871 52.7363 -12.1873 18.8595 -54.3847 -14.3985 -18.9335 
144.35 85.5954 -58.9663 87.2354 -8.42943 91.6274 -179.724 22.0944 93.4734 -11.3187 79.6236 10.7879 111.804 68.921 9.00886 28.7808 5.06479e-006 1.36131e-005 178.943 -0.363248 90.3684 -54.7277 19.638 1.14921 49.9061 13.2745 10.3214 28.7808 1.51332e-005 1.89518e-005 4.40999 7.51286 -94.9756 11.4687 5.24847 -3.88693 -0.198123 5.07223 -4.1143 -22.8005 6.17453 -2.13 -2.78792 6.17451 -2.13003 90.3591 -43.3148 -101.904 25.607 12.7417 -32.7108 -5.8521 -49.1994 -5.80511 22.0779 -7.3225 -40.3908 -75.2447 -47.4058 101.13 -26.8475 -13.2261 45.5726 27.0725 13.7875 -64.0147 -16.0465 1.02933 -13.7064 52.2171 -11.054 22.1403 -55.4396 -13.9394 -21.4159 
146.884 86.7377 -58.6605 87.1348 -8.75118 92.3139 -179.461 20.3467 94.2012 -13.2183 81.3386 12.7612 108.85 68.6435 10.9654 28.7808 5.06479e-006 1.36131e-005 179.088 0.00709043 91.3549 -54.3878 25.2193 1.66037 43.0242 9.31304 8.45354 28.7808 1.51332e-005 1.89518e-005 4.40459 7.33544 -95.094 11.8221 5.37055 -3.88317 0.155793 5.19545 -4.11613 -22.4523 6.28521 -2.08047 -2.4396 6.28522 -2.0805 90.034 -40.6212 -103.105 29.2252 10.8514 -28.4755 -5.68024 -44.4748 -5.855 19.7343 -5.82746 -36.6431 -73.9417 -47.8215 103.138 -26.3199 -13.5983 45.4406 28.2478 15.7711 -62.3164 -14.9719 1.26552 -16.5235 51.1956 -10.6538 23.5226 -55.7082 -13.583 -22.6084 
149.366 87.6904 -58.3075 87.5187 -9.17427 92.6261 -179.362 18.1301 94.6154 -14.0311 81.909 13.5999 106.401 68.5813 12.6151 28.7808 5.06479e-006 1.36131e-005 179.163 0.758574 92.0587 -55.2992 32.6969 2.43329 37.4816 4.78146 5.18478 28.7808 1.51332e-005 1.89518e-005 4.328 7.22429 -95.2232 12.0164 5.39129 -3.66329 0.3508 5.2249 -3.89719 -22.2603 6.24232 -1.86964 -2.24763 6.24236 -1.86965 88.6404 -43.0572 -104.827 28.939 11.5557 -18.0258 -18.194 -36.0717 -26.8097 26.5173 -5.13497 -26.6298 -72.3434 -47.8843 105.615 -26.1148 -13.6811 45.7184 29.1982 16.231 -62.6854 -15.8482 1.33183 -16.3421 49.3987 -10.7742 24.1619 -54.6779 -13.1718 -24.0959 
